<svg id="Layer_1" data-name="Layer 1" xmlns="http://www.w3.org/2000/svg" xmlns:xlink="http://www.w3.org/1999/xlink" viewBox="0 0 104.73 27.41"><defs><style>.cls-1{fill:none;}.cls-2{clip-path:url(#clip-path);}.cls-3{fill:#ffffff;}.cls-3,.cls-4,.cls-5{fill-rule:evenodd;}.cls-4{fill:#ffffff;}.cls-5{fill:#ffffff;}</style><clipPath id="clip-path" transform="translate(-4.72 -3.34)"><rect class="cls-1" x="4.72" y="3.34" width="104.66" height="27.66"/></clipPath></defs><g class="cls-2"><path class="cls-3" d="M43.16,5.77c.16,0,.19.09.23.26l1,4.71H41.86L42.92,6C43,5.86,43,5.77,43.16,5.77ZM45.89,16.2h2.43a.27.27,0,0,0,.29-.28v0a.13.13,0,0,1,0-.06L46,5.24c-.4-1.64-1.67-1.9-2.86-1.9s-2.48.26-2.87,1.9l-2.58,10.6s0,0,0,.06v0a.27.27,0,0,0,.29.28H40.4a.36.36,0,0,0,.35-.31l.63-2.8h3.54l.63,2.8A.36.36,0,0,0,45.89,16.2ZM53.48,5.82C55,5.82,56,6.44,56,8.75V11c0,2.31-1,2.92-2.56,2.92-.44,0-1,0-1.23,0v-8C52.49,5.84,53,5.82,53.48,5.82ZM49.79,16.09a26.14,26.14,0,0,0,3.69.26c3.44,0,5.52-1.79,5.52-5.4V8.75c0-3.61-2.08-5.41-5.52-5.41a26.14,26.14,0,0,0-3.69.26.52.52,0,0,0-.5.6V15.5A.51.51,0,0,0,49.79,16.09Zm21.61.11H69.11a.32.32,0,0,1-.27-.34V8.73c0-.12-.06-.14-.09-.14s-.09,0-.14.12l-1.56,2.82a.54.54,0,0,1-.52.29H65.14a.54.54,0,0,1-.51-.29L63.07,8.71c0-.09-.09-.12-.14-.12s-.09,0-.09.14v7.13a.32.32,0,0,1-.27.34H60.28c-.14,0-.29-.05-.29-.24V4.08a.57.57,0,0,1,.62-.58h1.63A.81.81,0,0,1,63,4l2.65,4.87c.07.14.12.22.19.22S66,9,66,8.83L68.68,4a.81.81,0,0,1,.76-.46h1.63a.58.58,0,0,1,.62.6V16C71.69,16.15,71.54,16.2,71.4,16.2Zm2.16,0h2.32a.34.34,0,0,0,.33-.34v-12a.32.32,0,0,0-.33-.32H73.56a.3.3,0,0,0-.31.32v12A.32.32,0,0,0,73.56,16.2ZM84.33,7.34c0-1-.81-1.52-2.27-1.52l-1.35,0V9.16l1.23,0c1.82,0,2.39-.46,2.39-1.62Zm3.12,8.86H84.8c-.18,0-.25-.14-.33-.3l0,0-2.32-4.33-.19,0-.64,0-.59,0v4.35a.35.35,0,0,1-.34.34H78.12a.35.35,0,0,1-.35-.34V4.39c0-.58.24-.74.78-.82a25.6,25.6,0,0,1,3.51-.23c2.94,0,5.21,1,5.21,4v.23A3.43,3.43,0,0,1,85,11l2.61,4.82a.54.54,0,0,1,0,.19C87.7,16.11,87.64,16.2,87.45,16.2ZM93.26,5.77c.16,0,.19.09.23.26l1.05,4.71H92L93,6C93.05,5.86,93.11,5.77,93.26,5.77ZM96,16.2h2.42a.28.28,0,0,0,.3-.28v0s0,0,0-.06L96.12,5.24c-.4-1.64-1.66-1.9-2.86-1.9s-2.47.26-2.87,1.9l-2.58,10.6s0,0,0,.06v0a.27.27,0,0,0,.3.28h2.42a.37.37,0,0,0,.35-.31l.62-2.8H95l.62,2.8A.37.37,0,0,0,96,16.2Zm10.09-.07a18,18,0,0,1-2.82.22c-2.23,0-4.22-.56-4.22-3.67V3.84a.34.34,0,0,1,.34-.34h2.27a.34.34,0,0,1,.34.34v8.84c0,.88.3,1.16,1.11,1.16h3a.35.35,0,0,1,.35.34v1.59C106.44,16,106.34,16.08,106.09,16.13ZM46.83,30.6h2.29c.13,0,.29-.05.29-.24V18.51a.59.59,0,0,0-.62-.61H47.16a.79.79,0,0,0-.76.47l-2.65,4.87c-.07.13-.13.22-.19.22s-.12-.09-.19-.22l-2.65-4.87A.81.81,0,0,0,40,17.9H38.33a.57.57,0,0,0-.62.59V30.36c0,.19.15.24.29.24h2.29a.31.31,0,0,0,.27-.34V23.14c0-.12.06-.14.09-.14s.09,0,.14.12l1.56,2.82a.56.56,0,0,0,.52.29h1.38a.56.56,0,0,0,.52-.29l1.56-2.82c.05-.09.08-.12.13-.12s.09,0,.09.14v7.12A.31.31,0,0,0,46.83,30.6Zm9-10.16c0-.18-.07-.26-.22-.26s-.21.08-.25.26l-1.05,4.71h2.58ZM60.72,30.6H58.29a.37.37,0,0,1-.35-.3l-.62-2.8H53.77l-.62,2.8a.36.36,0,0,1-.35.3H50.38a.26.26,0,0,1-.29-.27v0a.13.13,0,0,0,0-.06l2.58-10.6c.4-1.64,1.68-1.9,2.88-1.9s2.45.26,2.85,1.9L61,30.25s0,0,0,.06v0A.26.26,0,0,1,60.72,30.6ZM66,20.23c1.46,0,2.28.48,2.28,1.52V22c0,1.16-.57,1.63-2.39,1.63-.2,0-1,0-1.23,0V20.28C64.83,20.26,65.73,20.23,66,20.23ZM68.71,30.6h2.65c.19,0,.26-.08.26-.2a.54.54,0,0,0-.05-.19L69,25.39A3.45,3.45,0,0,0,71.19,22v-.22c0-3-2.27-4-5.22-4a27.48,27.48,0,0,0-3.5.22c-.54.09-.78.24-.78.82V30.26a.34.34,0,0,0,.34.34h2.25a.35.35,0,0,0,.35-.34V25.92l.58,0,.65,0,.19,0,2.31,4.32,0,0C68.47,30.46,68.54,30.6,68.71,30.6ZM82.58,18.33l-4.12,5.78,4.14,6.14a.32.32,0,0,1,.07.18c0,.11-.09.17-.24.17h-3a.42.42,0,0,1-.39-.24l-3.51-5.63v5.53a.35.35,0,0,1-.35.34H72.94a.34.34,0,0,1-.35-.34v-12a.33.33,0,0,1,.35-.33H75.2a.34.34,0,0,1,.35.33v5.44l3.81-5.56a.4.4,0,0,1,.38-.21h2.65c.19,0,.28.09.28.19A.51.51,0,0,1,82.58,18.33ZM90,30.55h.08c.24,0,.34-.14.34-.36V28.59a.34.34,0,0,0-.34-.34H86.53c-.81,0-1.1-.28-1.1-1.17V25.27h4.48a.35.35,0,0,0,.35-.34V23.31a.35.35,0,0,0-.35-.35H85.43V21.41c0-.89.29-1.17,1.1-1.17h3.52a.34.34,0,0,0,.34-.33V18.32c0-.23-.1-.31-.34-.35H90a21.34,21.34,0,0,0-3.26-.21c-2.24,0-4.23.55-4.23,3.66v5.67c0,3.12,2,3.68,4.21,3.68A21.57,21.57,0,0,0,90,30.55Zm10.1-10.24H97.26v10a.34.34,0,0,1-.35.34H94.65a.35.35,0,0,1-.35-.34v-10H91.48a.33.33,0,0,1-.35-.32V18.23a.34.34,0,0,1,.35-.33h8.59a.35.35,0,0,1,.36.33V20A.34.34,0,0,1,100.07,20.31Zm1.38,10.07a13.07,13.07,0,0,0,3.28.38c3.51,0,4.72-1.94,4.72-3.74,0-1.39-.54-2.52-2.34-3.48l-2.21-1.17c-.94-.5-1.16-.72-1.16-1.2s.36-.91,1.35-.91,2.72.13,3.44.18h.26a.27.27,0,0,0,.3-.29V18.44a.31.31,0,0,0-.27-.31,19.21,19.21,0,0,0-3.66-.38c-3.36,0-4.43,1.45-4.43,3.34a3.48,3.48,0,0,0,2,3.26l2.39,1.4c.9.53,1.14.81,1.14,1.3,0,.82-.35,1.2-1.54,1.2-.68,0-2.58-.14-3.29-.21h0c-.18,0-.31.09-.31.33V30C101.11,30.23,101.28,30.33,101.45,30.38Z" transform="translate(-4.72 -3.34)"/><path class="cls-4" d="M32.49,10.77A7.53,7.53,0,1,1,25,3.35,7.48,7.48,0,0,1,32.49,10.77Z" transform="translate(-4.72 -3.34)"/><path class="cls-5" d="M19.77,23.18a7.53,7.53,0,1,1-7.52-7.43A7.47,7.47,0,0,1,19.77,23.18Z" transform="translate(-4.72 -3.34)"/></g></svg>