<svg width="228" height="34" viewBox="0 0 228 34" fill="none" xmlns="http://www.w3.org/2000/svg">
<path d="M131.633 20.9549H131.098C130.638 20.9549 130.171 20.9806 129.695 21.0318C129.236 21.0659 128.819 21.1427 128.445 21.2622C128.088 21.3817 127.79 21.561 127.552 21.8C127.314 22.0219 127.195 22.3206 127.195 22.6962C127.195 22.9352 127.246 23.14 127.348 23.3108C127.467 23.4815 127.612 23.618 127.782 23.7205C127.952 23.8229 128.148 23.8997 128.369 23.9509C128.59 23.9851 128.802 24.0021 129.006 24.0021C129.856 24.0021 130.502 23.7717 130.945 23.3108C131.404 22.8328 131.633 22.1926 131.633 21.3903V20.9549ZM123.956 15.5007C124.704 14.7838 125.572 14.246 126.558 13.8875C127.561 13.529 128.581 13.3498 129.618 13.3498C130.689 13.3498 131.591 13.4864 132.322 13.7595C133.07 14.0156 133.673 14.4253 134.133 14.9886C134.592 15.5349 134.923 16.2348 135.127 17.0883C135.348 17.9248 135.459 18.9235 135.459 20.0843V26.5116H131.633V25.1544H131.557C131.234 25.6836 130.74 26.0933 130.077 26.3836C129.431 26.6738 128.726 26.8189 127.961 26.8189C127.45 26.8189 126.923 26.7506 126.379 26.614C125.835 26.4774 125.334 26.2555 124.874 25.9482C124.432 25.641 124.067 25.2313 123.778 24.7191C123.489 24.207 123.344 23.5754 123.344 22.8242C123.344 21.9024 123.591 21.1598 124.084 20.5965C124.594 20.0331 125.24 19.5978 126.022 19.2905C126.821 18.9832 127.705 18.7784 128.675 18.676C129.644 18.5735 130.587 18.5223 131.506 18.5223V18.3175C131.506 17.6858 131.285 17.2249 130.843 16.9347C130.4 16.6274 129.856 16.4738 129.21 16.4738C128.615 16.4738 128.037 16.6018 127.476 16.8579C126.932 17.114 126.464 17.4212 126.073 17.7797L123.956 15.5007Z" fill="#101F54"/>
<path d="M148.196 26.5116V24.8472H148.145C147.737 25.4959 147.15 25.9994 146.385 26.3579C145.637 26.6994 144.838 26.8701 143.988 26.8701C143.035 26.8701 142.185 26.6823 141.437 26.3067C140.689 25.9312 140.051 25.4361 139.524 24.8215C139.014 24.1899 138.623 23.4644 138.351 22.645C138.079 21.8256 137.943 20.972 137.943 20.0843C137.943 19.1966 138.079 18.3516 138.351 17.5493C138.64 16.7299 139.04 16.0129 139.55 15.3983C140.077 14.7838 140.706 14.2972 141.437 13.9387C142.185 13.5802 143.018 13.401 143.937 13.401C144.872 13.401 145.662 13.5802 146.308 13.9387C146.955 14.2972 147.456 14.6899 147.813 15.1166H147.864V7.15298H152.047V26.5116H148.196ZM148.043 20.1099C148.043 19.7002 147.966 19.2991 147.813 18.9064C147.677 18.5138 147.473 18.1638 147.201 17.8565C146.946 17.5493 146.632 17.3017 146.257 17.114C145.883 16.9262 145.458 16.8323 144.982 16.8323C144.489 16.8323 144.056 16.9262 143.682 17.114C143.307 17.3017 142.993 17.5493 142.738 17.8565C142.483 18.1468 142.287 18.4882 142.151 18.8808C142.032 19.2734 141.973 19.6746 141.973 20.0843C141.973 20.494 142.032 20.9037 142.151 21.3134C142.287 21.7061 142.483 22.056 142.738 22.3633C142.993 22.6706 143.307 22.9181 143.682 23.1059C144.056 23.2937 144.489 23.3876 144.982 23.3876C145.458 23.3876 145.883 23.2937 146.257 23.1059C146.632 22.9181 146.946 22.6706 147.201 22.3633C147.473 22.056 147.677 21.7061 147.813 21.3134C147.966 20.9208 148.043 20.5196 148.043 20.1099Z" fill="#101F54"/>
<path d="M171.588 26.5116V19.5466C171.588 19.1881 171.563 18.8467 171.512 18.5223C171.461 18.1809 171.367 17.8907 171.231 17.6517C171.095 17.4127 170.908 17.2249 170.67 17.0883C170.449 16.9347 170.152 16.8579 169.778 16.8579C169.421 16.8579 169.106 16.9347 168.834 17.0883C168.579 17.242 168.358 17.4468 168.171 17.7029C168.001 17.959 167.873 18.2577 167.788 18.5991C167.703 18.9235 167.661 19.2649 167.661 19.6234V26.5116H163.478V19.2393C163.478 18.5052 163.334 17.9248 163.044 17.4981C162.755 17.0713 162.296 16.8579 161.667 16.8579C161.004 16.8579 160.486 17.1225 160.111 17.6517C159.754 18.1809 159.576 18.8296 159.576 19.5978V26.5116H155.368V13.7595H159.423V15.5263H159.474C159.627 15.2532 159.814 14.9886 160.035 14.7325C160.273 14.4765 160.554 14.2546 160.877 14.0668C161.2 13.8619 161.557 13.6997 161.948 13.5802C162.356 13.4607 162.798 13.401 163.274 13.401C164.192 13.401 164.966 13.5888 165.595 13.9643C166.241 14.3399 166.743 14.8776 167.1 15.5776C167.525 14.9118 168.069 14.3826 168.732 13.99C169.395 13.5973 170.203 13.401 171.155 13.401C172.022 13.401 172.745 13.5632 173.323 13.8875C173.918 14.1948 174.394 14.6045 174.751 15.1166C175.108 15.6117 175.363 16.175 175.516 16.8067C175.686 17.4212 175.771 18.0273 175.771 18.6247V26.5116H171.588Z" fill="#101F54"/>
<path d="M178.98 26.5116V13.7595H183.163V26.5116H178.98Z" fill="#101F54"/>
<path d="M194.714 17.1908C194.527 17.1396 194.34 17.1054 194.153 17.0883C193.983 17.0713 193.813 17.0627 193.643 17.0627C193.082 17.0627 192.606 17.1652 192.214 17.37C191.84 17.5749 191.534 17.8224 191.296 18.1126C191.075 18.4028 190.914 18.7186 190.812 19.0601C190.71 19.4015 190.659 19.7002 190.659 19.9563V26.5116H186.476V13.7595H190.506V15.6032H190.557C190.88 14.9545 191.339 14.4253 191.934 14.0156C192.529 13.6059 193.218 13.401 194 13.401C194.17 13.401 194.331 13.4095 194.484 13.4266C194.654 13.4437 194.79 13.4693 194.892 13.5034L194.714 17.1908Z" fill="#101F54"/>
<path d="M203.688 20.9549H203.152C202.693 20.9549 202.226 20.9806 201.749 21.0318C201.29 21.0659 200.874 21.1427 200.5 21.2622C200.143 21.3817 199.845 21.561 199.607 21.8C199.369 22.0219 199.25 22.3206 199.25 22.6962C199.25 22.9352 199.301 23.14 199.403 23.3108C199.522 23.4815 199.667 23.618 199.837 23.7205C200.007 23.8229 200.202 23.8997 200.423 23.9509C200.644 23.9851 200.857 24.0021 201.061 24.0021C201.911 24.0021 202.557 23.7717 202.999 23.3108C203.458 22.8328 203.688 22.1926 203.688 21.3903V20.9549ZM196.011 15.5007C196.759 14.7838 197.626 14.246 198.612 13.8875C199.616 13.529 200.636 13.3498 201.673 13.3498C202.744 13.3498 203.645 13.4864 204.376 13.7595C205.125 14.0156 205.728 14.4253 206.187 14.9886C206.646 15.5349 206.978 16.2348 207.182 17.0883C207.403 17.9248 207.513 18.9235 207.513 20.0843V26.5116H203.688V25.1544H203.611C203.288 25.6836 202.795 26.0933 202.132 26.3836C201.486 26.6738 200.78 26.8189 200.015 26.8189C199.505 26.8189 198.978 26.7506 198.434 26.614C197.89 26.4774 197.388 26.2555 196.929 25.9482C196.487 25.641 196.122 25.2313 195.832 24.7191C195.543 24.207 195.399 23.5754 195.399 22.8242C195.399 21.9024 195.645 21.1598 196.139 20.5965C196.649 20.0331 197.295 19.5978 198.077 19.2905C198.876 18.9832 199.76 18.7784 200.729 18.676C201.698 18.5735 202.642 18.5223 203.56 18.5223V18.3175C203.56 17.6858 203.339 17.2249 202.897 16.9347C202.455 16.6274 201.911 16.4738 201.265 16.4738C200.67 16.4738 200.092 16.6018 199.531 16.8579C198.987 17.114 198.519 17.4212 198.128 17.7797L196.011 15.5007Z" fill="#101F54"/>
<path d="M210.686 26.5116V7.15298H214.92V26.5116H210.686Z" fill="#101F54"/>
<path d="M225.705 17.5237C225.365 17.1993 224.965 16.9262 224.506 16.7042C224.047 16.4823 223.562 16.3714 223.052 16.3714C222.661 16.3714 222.296 16.4482 221.955 16.6018C221.632 16.7555 221.471 17.0201 221.471 17.3956C221.471 17.7541 221.649 18.0102 222.006 18.1638C222.381 18.3175 222.976 18.4882 223.792 18.676C224.268 18.7784 224.744 18.9235 225.22 19.1113C225.713 19.2991 226.155 19.5466 226.546 19.8539C226.937 20.1611 227.252 20.5367 227.49 20.9806C227.728 21.4244 227.847 21.9536 227.847 22.5682C227.847 23.3705 227.685 24.0533 227.362 24.6167C227.039 25.163 226.614 25.6068 226.087 25.9482C225.577 26.2897 224.999 26.5372 224.353 26.6908C223.707 26.8445 223.061 26.9213 222.415 26.9213C221.377 26.9213 220.357 26.7591 219.354 26.4348C218.368 26.0933 217.543 25.5983 216.88 24.9496L219.227 22.4657C219.601 22.8754 220.06 23.2169 220.604 23.49C221.148 23.7631 221.726 23.8997 222.338 23.8997C222.678 23.8997 223.01 23.8229 223.333 23.6692C223.673 23.4985 223.843 23.2083 223.843 22.7986C223.843 22.406 223.639 22.1158 223.231 21.928C222.823 21.7402 222.185 21.5439 221.318 21.339C220.876 21.2366 220.434 21.1001 219.992 20.9293C219.55 20.7586 219.15 20.5282 218.793 20.238C218.453 19.9478 218.172 19.5893 217.951 19.1625C217.73 18.7357 217.62 18.2236 217.62 17.6261C217.62 16.8579 217.781 16.2092 218.104 15.68C218.427 15.1337 218.844 14.6899 219.354 14.3484C219.864 14.007 220.425 13.7595 221.037 13.6059C221.666 13.4351 222.287 13.3498 222.899 13.3498C223.851 13.3498 224.778 13.5034 225.679 13.8107C226.597 14.1009 227.371 14.5448 228 15.1422L225.705 17.5237Z" fill="#101F54"/>
<path d="M183.812 8.60656C183.812 9.35411 183.553 9.97706 183.035 10.4754C182.534 10.9738 181.93 11.223 181.222 11.223C180.859 11.223 180.513 11.1518 180.185 11.0094C179.874 10.8848 179.598 10.7068 179.356 10.4754C179.115 10.244 178.925 9.97706 178.786 9.67448C178.648 9.35411 178.579 9.00704 178.579 8.63326C178.579 8.27729 178.648 7.93912 178.786 7.61874C178.925 7.29837 179.115 7.02249 179.356 6.79111C179.598 6.54193 179.874 6.34614 180.185 6.20376C180.513 6.06137 180.859 5.99017 181.222 5.99017C181.93 5.99017 182.534 6.23935 183.035 6.73771C183.553 7.23607 183.812 7.85902 183.812 8.60656Z" fill="#0576F6"/>
<rect x="114.374" y="3" width="27.659" height="0.74754" rx="0.37377" transform="rotate(90 114.374 3)" fill="#101F54"/>
<g clip-path="url(#clip0)">
<path fill-rule="evenodd" clip-rule="evenodd" d="M38.4369 5.42988C38.594 5.42988 38.6311 5.51398 38.6629 5.68405L39.7175 10.4003H37.1373L38.1946 5.68405C38.2321 5.51398 38.2797 5.42988 38.4369 5.42988ZM41.1693 15.8558H43.5985C43.7689 15.8558 43.89 15.7508 43.89 15.5792C43.89 15.573 43.8874 15.564 43.8843 15.5533C43.8796 15.5371 43.8737 15.5168 43.8737 15.4955L41.2931 4.89726C40.8964 3.2579 39.6323 3 38.4369 3C37.2417 3 35.9611 3.2579 35.5643 4.89726L32.9837 15.4955C32.9837 15.5168 32.9778 15.5371 32.9731 15.5533C32.97 15.564 32.9674 15.573 32.9674 15.5792C32.9674 15.7508 33.0882 15.8558 33.2619 15.8558H35.6828C35.8589 15.8558 35.997 15.7187 36.03 15.5482L36.655 12.7423H40.2025L40.8278 15.5482C40.8608 15.7187 40.9986 15.8558 41.1693 15.8558ZM48.7542 5.4787C50.3154 5.4787 51.3186 6.0943 51.3186 8.40158V10.6068C51.3186 12.913 50.3154 13.5308 48.7542 13.5308C48.3219 13.5308 47.7684 13.5118 47.5284 13.4964V5.51383C47.7684 5.49552 48.3219 5.4787 48.7542 5.4787ZM45.0662 15.7507C45.7768 15.871 47.3164 16.0078 48.7542 16.0078C52.1995 16.0078 54.2763 14.2137 54.2763 10.6068V8.40158C54.2763 4.79507 52.1995 3.00022 48.7542 3.00022C47.3164 3.00022 45.7768 3.13702 45.0662 3.25775C44.7399 3.30784 44.565 3.46333 44.565 3.85392V15.1541C44.565 15.5481 44.7399 15.7002 45.0662 15.7507ZM66.6758 15.8558H64.3859C64.2329 15.8558 64.1148 15.7003 64.1148 15.5123V8.38225C64.1148 8.26339 64.0584 8.24919 64.0259 8.24919C63.9732 8.24919 63.938 8.28133 63.8854 8.36618L62.3299 11.1867C62.2084 11.3922 62.0346 11.4793 61.8056 11.4793H60.4227C60.1997 11.4793 60.0267 11.3922 59.9052 11.1867L58.3467 8.36618C58.2945 8.28133 58.2589 8.24919 58.21 8.24919C58.176 8.24919 58.1218 8.26339 58.1218 8.38225V15.5123C58.1218 15.7003 58.0022 15.8558 57.8455 15.8558H55.5593C55.4197 15.8558 55.2679 15.805 55.2679 15.6136V3.73517C55.2679 3.37597 55.5238 3.1562 55.8898 3.1562H57.518C57.8811 3.1562 58.1218 3.32663 58.2759 3.61481L60.9262 8.4884C60.9989 8.62296 61.0485 8.70893 61.1174 8.70893C61.1867 8.70893 61.2385 8.62296 61.3074 8.4884L63.9543 3.61481C64.1148 3.32663 64.3533 3.1562 64.7194 3.1562H66.3445C66.7083 3.1562 66.9703 3.39354 66.9703 3.75311V15.6136C66.9703 15.805 66.8132 15.8558 66.6758 15.8558ZM68.837 15.8558H71.1572C71.3487 15.8558 71.4861 15.7003 71.4861 15.5123V3.47726C71.4861 3.29225 71.3487 3.1562 71.1572 3.1562H68.837C68.6469 3.1562 68.5288 3.29225 68.5288 3.47726V15.5123C68.5288 15.7003 68.6469 15.8558 68.837 15.8558ZM79.6082 6.99957C79.6082 5.9575 78.7936 5.4787 77.3391 5.4787C77.098 5.4787 76.1959 5.51383 75.9888 5.52953V8.81236C76.1769 8.8288 77.0287 8.84712 77.218 8.84712C79.0362 8.84712 79.6082 8.38215 79.6082 7.22196V6.99957ZM82.7238 15.8557H80.0773C79.9005 15.8557 79.8278 15.7116 79.7492 15.5557L79.7271 15.5122L77.4099 11.1865L77.218 11.2075C77.0315 11.2075 76.7995 11.1972 76.5734 11.1871C76.3585 11.1776 76.1489 11.1682 75.9888 11.1682V15.5122C75.9888 15.7002 75.8321 15.8557 75.6447 15.8557H73.393C73.2022 15.8557 73.0455 15.7002 73.0455 15.5122V4.0423C73.0455 3.46333 73.2915 3.30784 73.8249 3.22262C74.6211 3.10114 76.0918 3.00022 77.3391 3.00022C80.2809 3.00022 82.5474 3.97502 82.5474 6.99957V7.22196C82.5474 9.03438 81.5809 10.1437 80.3165 10.6393L82.9327 15.4606C82.9626 15.5309 82.9819 15.5974 82.9819 15.6509C82.9819 15.7686 82.9138 15.8557 82.7238 15.8557ZM88.5405 5.42988C88.6965 5.42988 88.7298 5.51398 88.7661 5.68405L89.8212 10.4003H87.2443L88.2967 5.68405C88.3308 5.51398 88.383 5.42988 88.5405 5.42988ZM91.2756 15.8558H93.6984C93.8722 15.8558 93.9944 15.7508 93.9944 15.5792C93.9944 15.573 93.9917 15.564 93.9885 15.5533C93.9836 15.5371 93.9774 15.5168 93.9774 15.4955L91.396 4.89726C90.997 3.2579 89.7334 3 88.5405 3C87.345 3 86.0636 3.2579 85.6653 4.89726L83.087 15.4955C83.087 15.5168 83.0811 15.5371 83.0764 15.5533C83.0733 15.564 83.0707 15.573 83.0707 15.5792C83.0707 15.7508 83.1918 15.8558 83.3656 15.8558H85.7887C85.9633 15.8558 86.0969 15.7187 86.1332 15.5482L86.7556 12.7423H90.3054L90.9281 15.5482C90.9663 15.7187 91.1019 15.8558 91.2756 15.8558ZM101.369 15.7872C100.796 15.9068 99.4635 16.0077 98.5459 16.0077C96.3158 16.0077 94.3242 15.4437 94.3242 12.3335V3.49648C94.3242 3.30772 94.479 3.15635 94.671 3.15635H96.9378C97.1248 3.15635 97.2823 3.30772 97.2823 3.49648V12.3335C97.2823 13.2209 97.5794 13.4963 98.3922 13.4963H101.369C101.559 13.4963 101.716 13.6481 101.716 13.8372V15.4269C101.716 15.6507 101.613 15.7352 101.369 15.7872ZM42.1114 30.2606H44.3941C44.5293 30.2606 44.686 30.2094 44.686 30.021V18.1616C44.686 17.8028 44.4301 17.5606 44.0636 17.5606H42.4358C42.0724 17.5606 41.8301 17.7314 41.673 18.0233L39.0235 22.8958C38.9576 23.0289 38.9023 23.1174 38.8365 23.1174C38.7672 23.1174 38.7153 23.0289 38.6464 22.8958L35.9969 18.0233C35.8424 17.7314 35.5986 17.5606 35.2341 17.5606H33.6093C33.2425 17.5606 32.9835 17.7864 32.9835 18.1433V30.021C32.9835 30.2094 33.1406 30.2606 33.2784 30.2606H35.5646C35.7186 30.2606 35.8424 30.1073 35.8424 29.9189V22.7915C35.8424 22.673 35.895 22.6529 35.9284 22.6529C35.9791 22.6529 36.0132 22.6906 36.0658 22.7777L37.6247 25.5967C37.7458 25.7996 37.9192 25.8867 38.1437 25.8867H39.5277C39.7533 25.8867 39.9271 25.7996 40.0482 25.5967L41.6071 22.7777C41.6594 22.6906 41.6927 22.6529 41.7419 22.6529C41.7805 22.6529 41.8301 22.673 41.8301 22.7915V29.9189C41.8301 30.1073 41.9513 30.2606 42.1114 30.2606ZM51.0591 20.0917C51.0238 19.9194 50.9902 19.8342 50.8346 19.8342C50.6794 19.8342 50.6271 19.9194 50.5908 20.0917L49.5338 24.8076H52.1133L51.0591 20.0917ZM55.9947 30.2605H53.5682C53.3948 30.2605 53.257 30.1241 53.2218 29.9526L52.596 27.1519H49.0519L48.4262 29.9526C48.3936 30.1241 48.2513 30.2605 48.079 30.2605H45.6555C45.4847 30.2605 45.3651 30.1593 45.3651 29.9884C45.3651 29.9823 45.3675 29.9729 45.3705 29.9616C45.3748 29.9446 45.3803 29.9235 45.3803 29.9028L47.9583 19.3061C48.3576 17.6648 49.6406 17.4092 50.8346 17.4092C52.0285 17.4092 53.2899 17.6648 53.6923 19.3061L56.2699 29.9028C56.2699 29.9235 56.2761 29.9446 56.281 29.9616C56.2842 29.9729 56.287 29.9823 56.287 29.9884C56.287 30.1593 56.1655 30.2605 55.9947 30.2605ZM61.2524 19.8853C62.7092 19.8853 63.5246 20.3645 63.5246 21.4043V21.6297C63.5246 22.7914 62.9529 23.2526 61.134 23.2526C60.9428 23.2526 60.0952 23.2391 59.9052 23.2186V19.9388C60.1115 19.9193 61.0128 19.8853 61.2524 19.8853ZM63.9876 30.2604H66.639C66.829 30.2604 66.9013 30.1774 66.9013 30.0548C66.9013 30.0074 66.8813 29.9371 66.8487 29.8687L64.2351 25.0493C65.4957 24.5537 66.466 23.441 66.466 21.6297V21.4043C66.466 18.3824 64.1995 17.4095 61.2524 17.4095C60.0104 17.4095 58.5374 17.5104 57.7436 17.63C57.2037 17.7171 56.9641 17.8707 56.9641 18.4504V29.9188C56.9641 30.1072 57.1178 30.2604 57.3086 30.2604H59.5614C59.7507 30.2604 59.9052 30.1072 59.9052 29.9188V25.5756C60.0668 25.5756 60.2767 25.5843 60.4916 25.5932C60.7168 25.6026 60.9476 25.6122 61.134 25.6122L61.3236 25.5969L63.6427 29.9188L63.6643 29.9614C63.7431 30.1174 63.8154 30.2604 63.9876 30.2604ZM77.8567 17.99L73.7398 23.7663L77.8767 29.9028C77.9282 29.9731 77.9445 30.0385 77.9445 30.0905C77.9445 30.1933 77.8567 30.2605 77.703 30.2605H74.726C74.5162 30.2605 74.4311 30.1593 74.3425 30.021L70.8309 24.383V29.9189C70.8309 30.1073 70.6716 30.2605 70.4815 30.2605H68.2166C68.022 30.2605 67.8691 30.1073 67.8691 29.9189V17.8857C67.8691 17.6974 68.022 17.5609 68.2166 17.5609H70.4815C70.6716 17.5609 70.8309 17.6974 70.8309 17.8857V23.3237L74.6374 17.7658C74.726 17.6301 74.8282 17.5609 75.0167 17.5609H77.6674C77.8567 17.5609 77.9445 17.6469 77.9445 17.7486C77.9445 17.817 77.9119 17.9029 77.8567 17.99ZM85.249 30.2043L85.3266 30.1934C85.5685 30.159 85.6703 30.0547 85.6703 29.8342V28.2442C85.6703 28.0573 85.5143 27.9041 85.3266 27.9041H81.8128C80.9947 27.9041 80.7032 27.6301 80.7032 26.7405V24.93H85.1854C85.3784 24.93 85.5329 24.7734 85.5329 24.5872V22.9617C85.5329 22.7778 85.3784 22.6201 85.1854 22.6201H80.7032V21.0652C80.7032 20.1775 80.9947 19.9005 81.8128 19.9005H85.3266C85.5143 19.9005 85.6703 19.7484 85.6703 19.563V17.9734C85.6703 17.7487 85.5685 17.6646 85.3266 17.6302L85.2442 17.6186C84.6391 17.5326 83.7716 17.4093 81.9831 17.4093C79.7496 17.4093 77.7607 17.9539 77.7607 21.0652V26.7405C77.7607 29.8518 79.7333 30.4147 81.9691 30.4147C83.7609 30.4147 84.6425 30.2901 85.249 30.2043ZM95.3436 19.9706H92.5393V29.9188C92.5393 30.1072 92.3856 30.2605 92.1925 30.2605H89.926C89.736 30.2605 89.5785 30.1072 89.5785 29.9188V19.9706H86.7556C86.5652 19.9706 86.4119 19.8341 86.4119 19.6469V17.8857C86.4119 17.6973 86.5652 17.5609 86.7556 17.5609H95.3436C95.5359 17.5609 95.7067 17.6973 95.7067 17.8857V19.6469C95.7067 19.8341 95.5359 19.9706 95.3436 19.9706ZM96.7279 30.0386C97.6099 30.2606 98.6317 30.4146 100.003 30.4146C103.517 30.4146 104.726 28.4807 104.726 26.6717C104.726 25.2869 104.192 24.1588 102.391 23.2005L100.174 22.0242C99.2381 21.5282 99.0148 21.3043 99.0148 20.8266C99.0148 20.2096 99.3801 19.9195 100.364 19.9195C101.402 19.9195 103.089 20.042 103.804 20.094C103.9 20.1009 103.978 20.1065 104.035 20.1105H104.07C104.294 20.1105 104.363 19.9707 104.363 19.819V18.0929C104.363 17.9026 104.242 17.817 104.102 17.7864C103.447 17.613 101.697 17.4093 100.433 17.4093C97.0754 17.4093 96.0041 18.8606 96.0041 20.7422C96.0041 21.9868 96.4337 23.0659 98.0445 24.0056L100.433 25.4083C101.333 25.9372 101.576 26.2127 101.576 26.7061C101.576 27.5295 101.231 27.904 100.036 27.904C99.3593 27.904 97.4566 27.7676 96.7449 27.7003H96.6953C96.5208 27.7003 96.3838 27.7836 96.3838 28.0217V29.6977C96.3838 29.8831 96.559 29.9881 96.7279 30.0386Z" fill="#002F5F"/>
<path fill-rule="evenodd" clip-rule="evenodd" d="M27.7646 10.4307C27.7646 14.5343 24.3935 17.8586 20.2407 17.8586C16.0898 17.8586 12.7214 14.5343 12.7214 10.4307C12.7214 6.32817 16.0898 3.00647 20.2407 3.00647C24.3935 3.00647 27.7646 6.32817 27.7646 10.4307Z" fill="#2585FF"/>
<path fill-rule="evenodd" clip-rule="evenodd" d="M15.0448 22.8344C15.0448 26.9339 11.6748 30.259 7.52427 30.259C3.37146 30.259 0 26.9339 0 22.8344C0 18.7319 3.37146 15.4043 7.52427 15.4043C11.6748 15.4043 15.0448 18.7319 15.0448 22.8344Z" fill="#DA1924"/>
</g>
<defs>
<clipPath id="clip0">
<rect width="104.656" height="27.659" fill="white" transform="translate(0 3)"/>
</clipPath>
</defs>
</svg>
