<svg width="139" height="35" viewBox="0 0 4010 1024" fill="#f0b90b" xmlns="http://www.w3.org/2000/svg"><path d="M1443.84 511.573333h-188.416V115.370667h184.32c81.237333 0 130.773333 40.576 130.773333 102.314666v1.621334c0 44.672-23.552 69.845333-51.968 85.248 45.482667 17.877333 73.898667 43.861333 73.898667 97.450666v0.853334c-0.853333 73.045333-59.306667 108.8-148.608 108.8z m38.954667-279.338666c0-25.984-20.266667-40.576-56.832-40.576h-86.058667v83.626666h80.384c38.144 0 62.506667-12.16 62.506667-42.24v-0.810666z m22.741333 159.146666c0-26.752-19.456-43.008-64.128-43.008h-101.546667V435.2h103.978667c38.144 0 61.696-13.781333 61.696-43.008v-0.853333z m181.930667 120.234667V115.328h86.869333v396.288H1687.466667z m481.536 0l-191.658667-251.733333v251.733333h-86.058667V115.328h80.384l185.941334 244.394667V115.328h86.101333v396.288h-74.709333z m466.133333 0l-36.565333-88.533333h-167.253334l-35.754666 88.533333h-89.344l169.728-399.573333h80.384l170.538666 399.573333h-91.733333zM2514.944 217.6l-52.778667 128.298667h105.557334L2514.944 217.6z m552.96 293.973333l-191.573333-251.733333v251.733333h-86.101334V115.328h80.384l185.941334 244.394667V115.328h86.101333v396.288h-74.709333z m362.24 7.253334c-116.949333 0-203.050667-90.112-203.050667-203.776v-0.853334c0-112.853333 85.290667-204.629333 207.061334-204.629333 74.752 0 119.381333 25.173333 155.946666 60.928L3534.890667 234.666667c-30.890667-27.605333-61.738667-44.629333-101.546667-44.629334-66.56 0-115.285333 55.210667-115.285333 123.434667v0.810667c0 68.181333 47.104 124.245333 115.328 124.245333 45.44 0 73.045333-17.92 103.936-46.293333l55.210666 56.021333c-40.618667 43.050667-86.101333 70.656-162.432 70.656z m232.234667-7.253334V115.328h298.837333V193.28h-211.968v80.384h186.794667v77.952h-186.794667v83.626667h215.210667v76.373333h-302.08z m-1447.893334 160.768h-159.146666v76.330667h141.269333v44.672h-141.312v114.474667h-49.493333v-280.96h208.64v45.482666z m301.226667 113.706667c0 83.626667-47.061333 125.866667-120.96 125.866667-73.088 0-119.381333-42.24-119.381333-123.434667v-161.621333h49.536v159.146666c0 52.010667 26.794667 80.426667 70.656 80.426667s70.656-26.794667 70.656-77.952v-161.621333h49.493333v159.146666z m198.997333 121.770667h-49.536v-234.666667H2575.786667v-45.482667h227.413333v45.482667h-89.344v234.666667h0.810667z m388.949334-121.770667c0 83.626667-47.104 125.866667-121.002667 125.866667-73.088 0-119.338667-42.24-119.338667-123.434667v-161.621333h49.493334v159.146666c0 52.010667 26.837333 80.426667 70.656 80.426667 43.861333 0 70.656-26.794667 70.656-77.952v-161.621333h49.536v159.146666z m265.557333 121.770667l-69.034667-97.450667h-61.696v97.450667H3188.906667v-280.96h125.013333c64.170667 0 103.978667 34.133333 103.978667 89.344 0 46.293333-27.605333 74.666667-66.56 85.248l75.52 106.368h-57.685334z m-58.453333-235.52H3239.253333v94.250666h72.277334c34.901333 0 57.6-18.688 57.6-47.104-0.768-30.848-21.888-47.104-58.453334-47.104z m392.192-0.768h-158.336v73.088h140.501333v43.861333h-140.501333v75.52h160.768v43.818667h-210.346667v-280.96h207.914667v44.672z m185.173333 73.898666c59.306667 14.592 90.112 35.712 90.112 82.816 0 52.778667-41.386667 84.48-99.84 84.48a171.477333 171.477333 0 0 1-116.949333-44.672l30.037333-34.944c26.794667 23.552 53.589333 36.565333 88.490667 36.565334 30.890667 0 49.536-13.824 49.536-35.754667 0-20.266667-11.349333-31.658667-63.317334-43.008-60.117333-14.634667-93.397333-31.701333-93.397333-84.48 0-48.725333 39.808-82.005333 95.829333-82.005333 40.576 0 73.088 12.202667 101.504 34.901333l-26.794666 37.376c-25.173333-18.688-50.346667-29.226667-76.373334-29.226667-29.184 0-45.44 14.592-45.44 33.28 0.810667 21.930667 13.013333 31.658667 66.56 44.672z m-2063.445333-0.853333h-570.026667v47.146667h570.026667v-47.104zM115.328 396.330667L0 511.573333l115.328 115.285334 116.096-115.285334-116.096-115.328z m396.288-164.864l198.101333 198.144 115.328-115.285334-197.333333-198.954666L511.616 0 396.288 115.328 198.144 313.472l115.328 115.285333 198.144-197.333333z m396.245333 164.864l-115.285333 115.328 115.285333 115.285333L1024 511.616l-116.138667-115.328z m-396.245333 396.288l-198.144-198.144-115.328 115.285333 198.144 198.144L511.573333 1024l115.285334-115.328 198.144-198.101333-115.328-116.138667-198.101334 198.144z m0-164.864l116.096-116.096-116.096-115.328-115.328 115.328 115.328 116.096z"></path>
</svg>